<svg xmlns="http://www.w3.org/2000/svg" viewBox="0 0 1024 958.55"><defs><style>.cls-1{fill:#16a1b0;}</style></defs><g id="图层_2" data-name="图层 2"><g id="图层_1-2" data-name="图层 1"><path class="cls-1" d="M1024,492.61c-45.24,12-70.13,45.44-94.92,82.55-31.57,47.26-74.79,50.74-107,7.4C806.76,562,803.57,529.61,802,502.17c-2-34.93,4.79-70.28,4.71-105.44-.05-22.36-5.69-44.7-8.85-67.27,62.77-13.5,155,36.83,190.38,104.9C998.45,454,1012,471.91,1024,490.61Z"/><path class="cls-1" d="M0,833.61c36.22-25.38,71-53.29,109.26-75.1,20-11.41,46-15.31,69.62-16.68,22.14-1.28,37.53,14.41,40.44,36.86,3.63,28-16.64,42.3-37.61,52.64C132.58,855.56,81,849.41,29.59,839.85,19.81,838,9.87,837,0,835.61Z"/><path class="cls-1" d="M279.22,562.13c33.54-11.48,53.39,13.92,73.42,39,37.55,47,68.05,54.14,123.58,33.35,6.83-2.56,23.78,8.58,29.14,17.51,44.78,74.59-2.77,139.56-71.56,172.61-55,26.41-114.33,23.5-173.27,17.44-2.1-.22-4.95-5-5.38-7.94-8.36-58.2-26.54-109.69-83.44-139.65-22.6-11.9-20.31-73.49,2.74-86,8.88-4.83,23.86,1.74,33-2.93C232.23,592.74,255.4,576.8,279.22,562.13Z"/><path class="cls-1" d="M268,479c.12,57.08-38,103.82-89.88,108.82-36.78,3.54-62.27-21.7-83.9-47.16C49,487.39,19.15,426,7.18,356.83c-1-5.56,5.85-16.88,11.09-18.38,33.19-9.51,69.78-11.4,99.85-26.52,42.81-21.53,81.89-51,120.87-79.47,40.08-29.22,48.48-20.2,86.77,2.06,2.16,1.26,2.94,9.31,1.16,12.28-32.89,54.87-72.26,107.49-73,175C253.66,442.16,263.73,462.67,268,479Z"/><path class="cls-1" d="M617.54,0c19.09,26.75,35.59,54.74,56.82,78.51,34,38.1,72.76,72,106.52,110.34,28,31.72,50.71,67.69,43.74,113.65-.58,3.8-6.12,9-10.12,9.8C773,321,765.84,280.59,742.59,262.48c-49.17-38.3-99.76-75.38-153.2-107.17-14.23-8.46-41.66,1.57-61.74,7.51-29.56,8.74-58.08,21.1-86.74,32.68-5.87,2.38-13.17,7.15-15.05,12.49-13.72,39.07-37.4,26.88-62.95,14.36-19.26-9.44-39.78-16.29-60.89-24.75,37.91-59.23,83.62-104.23,151.5-125.71C504.83,55.66,554.05,32.75,604,12.26,609.27,10.09,613,4.19,617.54,0Z"/><path class="cls-1" d="M771.68,329.37c4.92,17.53,15.19,34.94,13.3,50.92-6.57,55.52-12,112.26-28.87,165-8.06,25.15-38.76,45.63-63.23,62.3-29.19,19.88-61.91,35.27-94.56,49.17-31.45,13.38-62.74,2.17-84.69-22.85-22.44-25.59.24-43.85,8-65,7.05-19.19,8.35-41.8,19.44-57.9,14.59-21.19,33.88-41.23,55.44-55.08,39.49-25.36,83.6-43.57,122.84-69.25C739.17,373.7,752.54,350.93,771.68,329.37Z"/><path class="cls-1" d="M288.13,528.42c1.56-20.2,11.06-44.57,3.29-60.54-26.48-54.45-5.66-100.58,17-147.42,9.08-18.8,20.33-36.65,31.71-54.21,18-27.76,42.44-19,61.2-4.3,8.67,6.78,11,27.1,9.37,40.47-3.05,25.37-18.54,51.14-15.39,75,6.77,51,49.49,75.21,90.59,97.79,29.65,16.28,36.57,37.94,21.81,68.44-9.65,19.93-13.41,45.28-28.15,59.64-31.13,30.34-61,26.59-91.7-4.44-14.85-15-27-33.53-43.95-45.44C327.1,541.56,305.89,536.05,288.13,528.42Z"/><path class="cls-1" d="M546.41,680.59c105.05,9.31,181.52-41.2,240.12-130.08-3.52-2.17-2.84-2-2.82-1.71,3.1,44.1,31.65,66.64,68,85,8.08,4.09,14,21.65,13.08,32.38-1.73,21.47-8.19,42.69-13.87,63.69-7,25.76-28.9,28.48-50.58,30.63-5.76.57-11.61.09-18.12.09-10.42,29.81-28.1,46.92-61.87,33.52-15.48-6.14-31.75-10.93-46.1-19.08-18.32-10.39-33.8-7.78-51.69,1.36-39.29,20.09-72.27,18.6-91.88-1.62-1.14-1.17-2.13-2.48,5-3.07C539.32,740.75,543,709.79,546.41,680.59Z"/><path class="cls-1" d="M525.15,479.19c10.69-32.16,17.5-60.15,29.22-85.91,13-28.51,31.33-54.52,45.76-82.43,29-56.18,23.71-73.7-29.3-108.29-6.42-4.18-11-11.28-16.35-17,8.63-1.85,19.34-7.9,25.55-4.84,31.79,15.71,63.16,32.58,93.18,51.42,19,11.95,35.89,27.56,53,42.41,30,26.07,28.47,56.37-8.16,81.24-39.38,26.75-82.2,48.38-122.71,73.54C573,443.19,552.3,459.74,525.15,479.19Z"/><path class="cls-1" d="M856.58,903.82c-65.06,21.7-128.55,37.38-192.35,3.62-38.33-20.27-57.44-55.39-67.82-95.39,31.05-20.11,59.1-15.29,93.92-4.81,61.73,18.56,114.26,48,160.49,91.21Z"/><path class="cls-1" d="M539.89,357.05c-12,33.13-23.84,65.89-35.66,98.52-34.88-7.38-85.78-55.18-84.48-84.84,1-24,12.25-47.42,17.1-71.47,2.4-11.92,3.63-25.59.19-36.89-8.9-29.22,11.15-57.88,43.1-57.8C470.2,266.84,474.47,323.74,539.89,357.05Z"/><path class="cls-1" d="M437.84,957.25C435.37,930,430.56,900,431.08,870c.18-10.28,12-22.41,21.4-30,19.33-15.62,40.65-28.76,65.88-46.19,5.85,12.18,19.86,27.49,17.93,40.42-3.17,21.16-12.8,44.15-26.76,60.25-20.5,23.64-47.22,41.88-71.28,62.43C436.68,958.22,435.2,959.66,437.84,957.25Z"/><path class="cls-1" d="M570,226c4.78,7.2,19,19.11,17.26,27.73-6,29.31-17.74,57.46-29.42,92.47L526,316.8Z"/><path class="cls-1" d="M504,288.06q-3-43.87-5.93-87.74l8-4.61c10.61,7.58,30.59,15.77,30.14,22.63-1.56,24.09-10.15,47.73-16.07,71.54Z"/></g></g></svg>